<mxfile host="Electron" agent="Mozilla/5.0 (Windows NT 10.0; Win64; x64) AppleWebKit/537.36 (KHTML, like Gecko) draw.io/27.0.9 Chrome/134.0.6998.205 Electron/35.4.0 Safari/537.36" version="27.0.9" pages="3">
  <diagram name="페이지-1" id="si9WiEyHauwOeKY3Vzi-">
    <mxGraphModel dx="1426" dy="849" grid="1" gridSize="10" guides="1" tooltips="1" connect="1" arrows="1" fold="1" page="1" pageScale="1" pageWidth="827" pageHeight="1169" math="0" shadow="0">
      <root>
        <mxCell id="0" />
        <mxCell id="1" parent="0" />
        <mxCell id="LVaz8bQsQqEIjGHbkDQo-53" value="" style="shape=card;whiteSpace=wrap;html=1;" parent="1" vertex="1">
          <mxGeometry x="25" y="10" width="1005" height="840" as="geometry" />
        </mxCell>
        <mxCell id="LVaz8bQsQqEIjGHbkDQo-34" value="" style="rounded=0;whiteSpace=wrap;html=1;" parent="1" vertex="1">
          <mxGeometry x="775" y="110" width="240" height="660" as="geometry" />
        </mxCell>
        <mxCell id="LVaz8bQsQqEIjGHbkDQo-33" value="" style="rounded=0;whiteSpace=wrap;html=1;" parent="1" vertex="1">
          <mxGeometry x="530" y="110" width="240" height="660" as="geometry" />
        </mxCell>
        <mxCell id="LVaz8bQsQqEIjGHbkDQo-32" value="" style="rounded=0;whiteSpace=wrap;html=1;" parent="1" vertex="1">
          <mxGeometry x="285" y="110" width="240" height="660" as="geometry" />
        </mxCell>
        <mxCell id="LVaz8bQsQqEIjGHbkDQo-31" value="" style="rounded=0;whiteSpace=wrap;html=1;" parent="1" vertex="1">
          <mxGeometry x="40" y="110" width="240" height="660" as="geometry" />
        </mxCell>
        <mxCell id="LVaz8bQsQqEIjGHbkDQo-35" value="계정 서비스" style="rounded=0;whiteSpace=wrap;html=1;fillColor=#e1d5e7;strokeColor=#9673a6;" parent="1" vertex="1">
          <mxGeometry x="40" y="110" width="240" height="30" as="geometry" />
        </mxCell>
        <mxCell id="LVaz8bQsQqEIjGHbkDQo-36" value="계정 서비스" style="rounded=0;whiteSpace=wrap;html=1;fillColor=#e1d5e7;strokeColor=#9673a6;" parent="1" vertex="1">
          <mxGeometry x="285" y="110" width="240" height="30" as="geometry" />
        </mxCell>
        <mxCell id="LVaz8bQsQqEIjGHbkDQo-37" value="계정 서비스" style="rounded=0;whiteSpace=wrap;html=1;fillColor=#e1d5e7;strokeColor=#9673a6;" parent="1" vertex="1">
          <mxGeometry x="530" y="110" width="240" height="30" as="geometry" />
        </mxCell>
        <mxCell id="LVaz8bQsQqEIjGHbkDQo-38" value="계정 서비스" style="rounded=0;whiteSpace=wrap;html=1;fillColor=#e1d5e7;strokeColor=#9673a6;" parent="1" vertex="1">
          <mxGeometry x="775" y="110" width="240" height="30" as="geometry" />
        </mxCell>
        <mxCell id="LVaz8bQsQqEIjGHbkDQo-39" value="구직 서비스" style="rounded=0;whiteSpace=wrap;html=1;fillColor=#e1d5e7;strokeColor=#9673a6;" parent="1" vertex="1">
          <mxGeometry x="40" y="270" width="240" height="30" as="geometry" />
        </mxCell>
        <mxCell id="LVaz8bQsQqEIjGHbkDQo-40" value="구직 서비스" style="rounded=0;whiteSpace=wrap;html=1;fillColor=#e1d5e7;strokeColor=#9673a6;" parent="1" vertex="1">
          <mxGeometry x="285" y="270" width="240" height="30" as="geometry" />
        </mxCell>
        <mxCell id="LVaz8bQsQqEIjGHbkDQo-41" value="구직 서비스" style="rounded=0;whiteSpace=wrap;html=1;fillColor=#e1d5e7;strokeColor=#9673a6;" parent="1" vertex="1">
          <mxGeometry x="530" y="270" width="240" height="30" as="geometry" />
        </mxCell>
        <mxCell id="LVaz8bQsQqEIjGHbkDQo-42" value="구직 서비스" style="rounded=0;whiteSpace=wrap;html=1;fillColor=#e1d5e7;strokeColor=#9673a6;" parent="1" vertex="1">
          <mxGeometry x="775" y="270" width="240" height="30" as="geometry" />
        </mxCell>
        <mxCell id="LVaz8bQsQqEIjGHbkDQo-43" value="채용 서비스" style="rounded=0;whiteSpace=wrap;html=1;fillColor=#e1d5e7;strokeColor=#9673a6;" parent="1" vertex="1">
          <mxGeometry x="40" y="425" width="240" height="30" as="geometry" />
        </mxCell>
        <mxCell id="LVaz8bQsQqEIjGHbkDQo-44" value="채용 \&lt;span style=&quot;background-color: transparent; color: light-dark(rgb(0, 0, 0), rgb(255, 255, 255));&quot;&gt;서비스&lt;/span&gt;" style="rounded=0;whiteSpace=wrap;html=1;fillColor=#e1d5e7;strokeColor=#9673a6;" parent="1" vertex="1">
          <mxGeometry x="285" y="425" width="240" height="30" as="geometry" />
        </mxCell>
        <mxCell id="LVaz8bQsQqEIjGHbkDQo-45" value="채용 서비스" style="rounded=0;whiteSpace=wrap;html=1;fillColor=#e1d5e7;strokeColor=#9673a6;" parent="1" vertex="1">
          <mxGeometry x="530" y="425" width="240" height="30" as="geometry" />
        </mxCell>
        <mxCell id="LVaz8bQsQqEIjGHbkDQo-46" value="채용 서비스" style="rounded=0;whiteSpace=wrap;html=1;fillColor=#e1d5e7;strokeColor=#9673a6;" parent="1" vertex="1">
          <mxGeometry x="775" y="425" width="240" height="30" as="geometry" />
        </mxCell>
        <mxCell id="LVaz8bQsQqEIjGHbkDQo-2" value="&lt;font style=&quot;font-size: 24px;&quot;&gt;구인구직 프로그램&lt;/font&gt;" style="text;html=1;align=center;verticalAlign=middle;resizable=0;points=[];autosize=1;strokeColor=none;fillColor=none;" parent="1" vertex="1">
          <mxGeometry x="55" y="20" width="210" height="40" as="geometry" />
        </mxCell>
        <mxCell id="LVaz8bQsQqEIjGHbkDQo-3" value="사서" style="text;html=1;align=center;verticalAlign=middle;resizable=0;points=[];autosize=1;strokeColor=none;fillColor=none;" parent="1" vertex="1">
          <mxGeometry x="290" y="68" width="50" height="30" as="geometry" />
        </mxCell>
        <mxCell id="LVaz8bQsQqEIjGHbkDQo-4" value="비회원" style="text;html=1;align=center;verticalAlign=middle;resizable=0;points=[];autosize=1;strokeColor=none;fillColor=none;" parent="1" vertex="1">
          <mxGeometry x="560" y="68" width="60" height="30" as="geometry" />
        </mxCell>
        <mxCell id="LVaz8bQsQqEIjGHbkDQo-5" value="회원" style="text;html=1;align=center;verticalAlign=middle;resizable=0;points=[];autosize=1;strokeColor=none;fillColor=none;" parent="1" vertex="1">
          <mxGeometry x="40" y="68" width="50" height="30" as="geometry" />
        </mxCell>
        <mxCell id="LVaz8bQsQqEIjGHbkDQo-6" value="관리자" style="text;html=1;align=center;verticalAlign=middle;resizable=0;points=[];autosize=1;strokeColor=none;fillColor=none;" parent="1" vertex="1">
          <mxGeometry x="840" y="68" width="60" height="30" as="geometry" />
        </mxCell>
        <mxCell id="LVaz8bQsQqEIjGHbkDQo-21" value="&lt;div&gt;&lt;span style=&quot;background-color: transparent; color: light-dark(rgb(0, 0, 0), rgb(255, 255, 255));&quot;&gt;개인회원은 나의정보 조회(Read) 할 수 있다&lt;/span&gt;&lt;/div&gt;&lt;div&gt;개인회원은 나의정보 수정(Update) 할 수 있다&lt;/div&gt;&lt;div&gt;개인회원은 회원탈퇴(Delete) 할 수 있다&lt;/div&gt;&lt;div&gt;&lt;br&gt;&lt;/div&gt;&lt;div&gt;개인회원은 로그인(Process) 할 수 있다&lt;/div&gt;&lt;div&gt;개인회원은 로그아웃&lt;span style=&quot;background-color: transparent; color: light-dark(rgb(0, 0, 0), rgb(255, 255, 255));&quot;&gt;(Process)&lt;/span&gt;&lt;span style=&quot;background-color: transparent; color: light-dark(rgb(0, 0, 0), rgb(255, 255, 255));&quot;&gt;&amp;nbsp;할 수 있다&lt;/span&gt;&lt;/div&gt;&lt;div&gt;&lt;br&gt;&lt;/div&gt;" style="text;html=1;align=left;verticalAlign=middle;resizable=0;points=[];autosize=1;strokeColor=none;fillColor=none;fontSize=10;" parent="1" vertex="1">
          <mxGeometry x="45" y="155" width="210" height="100" as="geometry" />
        </mxCell>
        <mxCell id="LVaz8bQsQqEIjGHbkDQo-23" value="&lt;br&gt;&lt;div&gt;비회원은 회원가입(Create)을 할 수 있다&lt;/div&gt;&lt;div&gt;&lt;br&gt;&lt;/div&gt;" style="text;html=1;align=left;verticalAlign=middle;resizable=0;points=[];autosize=1;strokeColor=none;fillColor=none;fontSize=10;" parent="1" vertex="1">
          <mxGeometry x="539" y="160" width="190" height="50" as="geometry" />
        </mxCell>
        <mxCell id="LVaz8bQsQqEIjGHbkDQo-25" value="&lt;div&gt;&lt;span style=&quot;background-color: transparent; color: light-dark(rgb(0, 0, 0), rgb(255, 255, 255));&quot;&gt;기업회원은 나의정보 조회(Read) 할 수 있다&lt;/span&gt;&lt;/div&gt;&lt;div&gt;&lt;span style=&quot;background-color: transparent; color: light-dark(rgb(0, 0, 0), rgb(255, 255, 255));&quot;&gt;기업회원은&amp;nbsp;&lt;/span&gt;나의정보 수정(Update) 할 수 있다&lt;/div&gt;&lt;div&gt;&lt;span style=&quot;background-color: transparent; color: light-dark(rgb(0, 0, 0), rgb(255, 255, 255));&quot;&gt;기업회원은&amp;nbsp;&lt;/span&gt;회원탈퇴(Delete) 할 수 있다&lt;/div&gt;&lt;div&gt;&lt;br&gt;&lt;/div&gt;&lt;div&gt;&lt;span style=&quot;background-color: transparent; color: light-dark(rgb(0, 0, 0), rgb(255, 255, 255));&quot;&gt;기업회원은&amp;nbsp;&lt;/span&gt;로그인(Process) 할 수 있다&lt;/div&gt;&lt;div&gt;&lt;span style=&quot;background-color: transparent; color: light-dark(rgb(0, 0, 0), rgb(255, 255, 255));&quot;&gt;기업회원은&amp;nbsp;&lt;/span&gt;로그아웃&lt;span style=&quot;background-color: transparent; color: light-dark(rgb(0, 0, 0), rgb(255, 255, 255));&quot;&gt;(Process)&lt;/span&gt;&lt;span style=&quot;background-color: transparent; color: light-dark(rgb(0, 0, 0), rgb(255, 255, 255));&quot;&gt;&amp;nbsp;할 수 있다&lt;/span&gt;&lt;/div&gt;&lt;div&gt;&lt;br&gt;&lt;/div&gt;" style="text;html=1;align=left;verticalAlign=middle;resizable=0;points=[];autosize=1;strokeColor=none;fillColor=none;fontSize=10;" parent="1" vertex="1">
          <mxGeometry x="290" y="155" width="210" height="100" as="geometry" />
        </mxCell>
        <mxCell id="LVaz8bQsQqEIjGHbkDQo-28" value="&lt;div&gt;기업회원은 이력서를 조회(Read) 할 수 있다&lt;/div&gt;&lt;div&gt;&lt;br&gt;&lt;/div&gt;" style="text;html=1;align=left;verticalAlign=middle;resizable=0;points=[];autosize=1;strokeColor=none;fillColor=none;fontSize=10;" parent="1" vertex="1">
          <mxGeometry x="288" y="350" width="210" height="40" as="geometry" />
        </mxCell>
        <mxCell id="LVaz8bQsQqEIjGHbkDQo-49" value="개인회원(구직)" style="rounded=0;whiteSpace=wrap;html=1;fillColor=#dae8fc;strokeColor=#6c8ebf;" parent="1" vertex="1">
          <mxGeometry x="40" y="68" width="240" height="30" as="geometry" />
        </mxCell>
        <mxCell id="LVaz8bQsQqEIjGHbkDQo-50" value="기업회원(구인)" style="rounded=0;whiteSpace=wrap;html=1;fillColor=#dae8fc;strokeColor=#6c8ebf;" parent="1" vertex="1">
          <mxGeometry x="285" y="68" width="240" height="30" as="geometry" />
        </mxCell>
        <mxCell id="LVaz8bQsQqEIjGHbkDQo-51" value="관리자" style="rounded=0;whiteSpace=wrap;html=1;fillColor=#dae8fc;strokeColor=#6c8ebf;" parent="1" vertex="1">
          <mxGeometry x="775" y="68" width="240" height="30" as="geometry" />
        </mxCell>
        <mxCell id="LVaz8bQsQqEIjGHbkDQo-52" value="비회원" style="rounded=0;whiteSpace=wrap;html=1;fillColor=#dae8fc;strokeColor=#6c8ebf;" parent="1" vertex="1">
          <mxGeometry x="530" y="68" width="240" height="30" as="geometry" />
        </mxCell>
        <mxCell id="SaV__zoNHmYWTOLUJSNv-4" value="&lt;div&gt;&lt;span style=&quot;background-color: transparent; color: light-dark(rgb(0, 0, 0), rgb(255, 255, 255));&quot;&gt;관리자는&amp;nbsp;&lt;/span&gt;회원정보를&amp;nbsp;&lt;span style=&quot;background-color: transparent; color: light-dark(rgb(0, 0, 0), rgb(255, 255, 255));&quot;&gt;조회(Read) 할 수 있다&lt;/span&gt;&lt;/div&gt;&lt;div&gt;관리자는 회원정보를 수정(Update) 할 수 있다&lt;/div&gt;&lt;div&gt;관리자는 모든 사용자에 대한&lt;/div&gt;&lt;div&gt;회원탈퇴(Delete) 할 수 있다&lt;/div&gt;&lt;div&gt;회원은 로그인(Process) 할 수 있다&lt;/div&gt;&lt;div&gt;회원은 로그아웃&lt;span style=&quot;background-color: transparent; color: light-dark(rgb(0, 0, 0), rgb(255, 255, 255));&quot;&gt;(Process)&lt;/span&gt;&lt;span style=&quot;background-color: transparent; color: light-dark(rgb(0, 0, 0), rgb(255, 255, 255));&quot;&gt;&amp;nbsp;할 수 있다&lt;/span&gt;&lt;/div&gt;&lt;div&gt;&lt;br&gt;&lt;/div&gt;" style="text;html=1;align=left;verticalAlign=middle;resizable=0;points=[];autosize=1;strokeColor=none;fillColor=none;fontSize=10;" parent="1" vertex="1">
          <mxGeometry x="790" y="155" width="210" height="100" as="geometry" />
        </mxCell>
        <mxCell id="SaV__zoNHmYWTOLUJSNv-5" value="&lt;div&gt;&lt;span style=&quot;background-color: transparent; color: light-dark(rgb(0, 0, 0), rgb(255, 255, 255));&quot;&gt;&lt;font&gt;개인회원은 자신의 이력서를 등록(Create) 할 수 있다&lt;/font&gt;&lt;/span&gt;&lt;/div&gt;&lt;div&gt;&lt;span style=&quot;background-color: transparent; color: light-dark(rgb(0, 0, 0), rgb(255, 255, 255));&quot;&gt;&lt;font&gt;개인회원은 자신의 이력서&amp;nbsp;&lt;/font&gt;&lt;/span&gt;&lt;span style=&quot;background-color: transparent; color: light-dark(rgb(0, 0, 0), rgb(255, 255, 255));&quot;&gt;조회(Read) 할 수 있다&lt;/span&gt;&lt;/div&gt;&lt;div&gt;&lt;span style=&quot;background-color: transparent; color: light-dark(rgb(0, 0, 0), rgb(255, 255, 255));&quot;&gt;개인회원은&lt;/span&gt;&lt;span style=&quot;background-color: transparent; color: light-dark(rgb(0, 0, 0), rgb(255, 255, 255));&quot;&gt;&amp;nbsp;&lt;/span&gt;&lt;span style=&quot;background-color: transparent; color: light-dark(rgb(0, 0, 0), rgb(255, 255, 255));&quot;&gt;&lt;font&gt;기업 정보를 조회(Read) 할 수 있다&lt;/font&gt;&lt;/span&gt;&lt;/div&gt;&lt;div&gt;&lt;font&gt;개인회원은 자신의 이력서를 수정(Update) 할 수 있다&lt;/font&gt;&lt;/div&gt;&lt;div&gt;&lt;font&gt;개인회원은 자신의 이력서를 삭제(Delete) 할 수 있다&lt;/font&gt;&lt;/div&gt;&lt;div&gt;&lt;br&gt;&lt;/div&gt;" style="text;html=1;align=left;verticalAlign=middle;resizable=0;points=[];autosize=1;strokeColor=none;fillColor=none;fontSize=10;" parent="1" vertex="1">
          <mxGeometry x="40" y="310" width="240" height="90" as="geometry" />
        </mxCell>
        <mxCell id="SaV__zoNHmYWTOLUJSNv-7" value="&lt;div&gt;&lt;br&gt;&lt;/div&gt;&lt;div&gt;&lt;span style=&quot;background-color: transparent; color: light-dark(rgb(0, 0, 0), rgb(255, 255, 255));&quot;&gt;개인회원은 채용 여부를 조회&lt;/span&gt;&lt;span style=&quot;background-color: transparent; color: light-dark(rgb(0, 0, 0), rgb(255, 255, 255));&quot;&gt;(Read) 할 수 있다&lt;/span&gt;&lt;/div&gt;&lt;div&gt;&lt;br&gt;&lt;/div&gt;" style="text;html=1;align=left;verticalAlign=middle;resizable=0;points=[];autosize=1;strokeColor=none;fillColor=none;fontSize=10;" parent="1" vertex="1">
          <mxGeometry x="50" y="475" width="220" height="50" as="geometry" />
        </mxCell>
        <mxCell id="SaV__zoNHmYWTOLUJSNv-8" value="&lt;div&gt;&lt;span style=&quot;background-color: transparent; color: light-dark(rgb(0, 0, 0), rgb(255, 255, 255));&quot;&gt;관리자는 모든 이력서를 조회(Read) 할 수 있다&lt;/span&gt;&lt;/div&gt;&lt;div&gt;관리자는 모든 이력서를 수정(Update) 할 수 있다&lt;/div&gt;&lt;div&gt;관리자는 모든 이력서를 삭제(Delete) 할 수 있다&lt;/div&gt;&lt;div&gt;&lt;br&gt;&lt;/div&gt;" style="text;html=1;align=left;verticalAlign=middle;resizable=0;points=[];autosize=1;strokeColor=none;fillColor=none;fontSize=10;" parent="1" vertex="1">
          <mxGeometry x="780" y="330" width="230" height="60" as="geometry" />
        </mxCell>
        <mxCell id="SaV__zoNHmYWTOLUJSNv-9" value="&lt;div&gt;&lt;span style=&quot;background-color: transparent; color: light-dark(rgb(0, 0, 0), rgb(255, 255, 255));&quot;&gt;관리자는 모든 채용공고를 조회(Read) 할 수 있다&lt;/span&gt;&lt;/div&gt;&lt;div&gt;관리자는 모든 채용공고를 수정(Update) 할 수 있다&lt;/div&gt;&lt;div&gt;관리자는 모든 채용공고를 삭제(Delete) 할 수 있다&lt;/div&gt;&lt;div&gt;&lt;br&gt;&lt;/div&gt;" style="text;html=1;align=left;verticalAlign=middle;resizable=0;points=[];autosize=1;strokeColor=none;fillColor=none;fontSize=10;" parent="1" vertex="1">
          <mxGeometry x="780" y="485" width="240" height="60" as="geometry" />
        </mxCell>
        <mxCell id="SaV__zoNHmYWTOLUJSNv-10" value="&lt;div&gt;&lt;br&gt;&lt;/div&gt;&lt;div&gt;&lt;span style=&quot;background-color: transparent; color: light-dark(rgb(0, 0, 0), rgb(255, 255, 255));&quot;&gt;비회원은 채용공고를 조회(Read) 할 수 있다&lt;/span&gt;&lt;/div&gt;&lt;div&gt;&lt;br&gt;&lt;/div&gt;" style="text;html=1;align=left;verticalAlign=middle;resizable=0;points=[];autosize=1;strokeColor=none;fillColor=none;fontSize=10;" parent="1" vertex="1">
          <mxGeometry x="538" y="475" width="210" height="50" as="geometry" />
        </mxCell>
        <mxCell id="SaV__zoNHmYWTOLUJSNv-11" value="&lt;div&gt;&lt;span style=&quot;background-color: transparent; color: light-dark(rgb(0, 0, 0), rgb(255, 255, 255));&quot;&gt;기업회원은 채용공고를 등록(Create) 할 수 있다&lt;/span&gt;&lt;/div&gt;&lt;div&gt;&lt;span style=&quot;background-color: transparent; color: light-dark(rgb(0, 0, 0), rgb(255, 255, 255));&quot;&gt;기업회원은 채용공고를 조회(Read) 할 수 있다&lt;/span&gt;&lt;/div&gt;&lt;div&gt;기업회원은 자신의 채용공고를 수정(Update) 할 수 있다&lt;/div&gt;&lt;div&gt;기업회원은 자신의 채용공고를 삭제(Delete) 할 수 있다&lt;/div&gt;&lt;div&gt;&lt;br&gt;&lt;/div&gt;" style="text;html=1;align=left;verticalAlign=middle;resizable=0;points=[];autosize=1;strokeColor=none;fillColor=none;fontSize=10;" parent="1" vertex="1">
          <mxGeometry x="288" y="485" width="250" height="70" as="geometry" />
        </mxCell>
        <mxCell id="SaV__zoNHmYWTOLUJSNv-13" value="커뮤니티" style="rounded=0;whiteSpace=wrap;html=1;fillColor=#e1d5e7;strokeColor=#9673a6;" parent="1" vertex="1">
          <mxGeometry x="40" y="585" width="240" height="30" as="geometry" />
        </mxCell>
        <mxCell id="SaV__zoNHmYWTOLUJSNv-14" value="커뮤니티" style="rounded=0;whiteSpace=wrap;html=1;fillColor=#e1d5e7;strokeColor=#9673a6;" parent="1" vertex="1">
          <mxGeometry x="285" y="585" width="240" height="30" as="geometry" />
        </mxCell>
        <mxCell id="SaV__zoNHmYWTOLUJSNv-15" value="커뮤니티" style="rounded=0;whiteSpace=wrap;html=1;fillColor=#e1d5e7;strokeColor=#9673a6;" parent="1" vertex="1">
          <mxGeometry x="530" y="585" width="240" height="30" as="geometry" />
        </mxCell>
        <mxCell id="SaV__zoNHmYWTOLUJSNv-16" value="커뮤니티" style="rounded=0;whiteSpace=wrap;html=1;fillColor=#e1d5e7;strokeColor=#9673a6;" parent="1" vertex="1">
          <mxGeometry x="775" y="585" width="240" height="30" as="geometry" />
        </mxCell>
        <mxCell id="SaV__zoNHmYWTOLUJSNv-20" value="&lt;div&gt;&lt;span style=&quot;background-color: transparent; color: light-dark(rgb(0, 0, 0), rgb(255, 255, 255));&quot;&gt;개인회원은 게시글을 등록(Create) 할 수 있다&lt;/span&gt;&lt;/div&gt;&lt;div&gt;&lt;span style=&quot;background-color: transparent; color: light-dark(rgb(0, 0, 0), rgb(255, 255, 255));&quot;&gt;개인회원은&amp;nbsp;&lt;/span&gt;게시글을&lt;span style=&quot;background-color: transparent; color: light-dark(rgb(0, 0, 0), rgb(255, 255, 255));&quot;&gt;&amp;nbsp;조회(Read) 할 수 있다&lt;/span&gt;&lt;/div&gt;&lt;div&gt;&lt;span style=&quot;background-color: transparent; color: light-dark(rgb(0, 0, 0), rgb(255, 255, 255));&quot;&gt;개인회원은 &lt;/span&gt;&lt;span style=&quot;background-color: transparent; color: light-dark(rgb(0, 0, 0), rgb(255, 255, 255));&quot;&gt;게시글을&lt;/span&gt;&lt;span style=&quot;background-color: transparent; color: light-dark(rgb(0, 0, 0), rgb(255, 255, 255));&quot;&gt;&amp;nbsp;수정(Update) 할 수 있다&lt;/span&gt;&lt;/div&gt;&lt;div&gt;개인회원은 &lt;span style=&quot;background-color: transparent; color: light-dark(rgb(0, 0, 0), rgb(255, 255, 255));&quot;&gt;게시글을&lt;/span&gt;&lt;span style=&quot;background-color: transparent; color: light-dark(rgb(0, 0, 0), rgb(255, 255, 255));&quot;&gt;&amp;nbsp;&lt;/span&gt;&lt;span style=&quot;background-color: transparent; color: light-dark(rgb(0, 0, 0), rgb(255, 255, 255));&quot;&gt;삭제(Delete) 할 수 있다&lt;/span&gt;&lt;/div&gt;&lt;div&gt;&lt;br&gt;&lt;/div&gt;&lt;div&gt;&lt;br&gt;&lt;/div&gt;" style="text;html=1;align=left;verticalAlign=middle;resizable=0;points=[];autosize=1;strokeColor=none;fillColor=none;fontSize=10;" parent="1" vertex="1">
          <mxGeometry x="45" y="650" width="210" height="90" as="geometry" />
        </mxCell>
        <mxCell id="SaV__zoNHmYWTOLUJSNv-21" value="&lt;div&gt;&lt;span style=&quot;background-color: transparent; color: light-dark(rgb(0, 0, 0), rgb(255, 255, 255));&quot;&gt;기업회원은&amp;nbsp;&lt;/span&gt;&lt;span style=&quot;background-color: transparent; color: light-dark(rgb(0, 0, 0), rgb(255, 255, 255));&quot;&gt;게시글을&lt;/span&gt;&lt;span style=&quot;background-color: transparent; color: light-dark(rgb(0, 0, 0), rgb(255, 255, 255));&quot;&gt;&amp;nbsp;조회(Read) 할 수 있다&lt;/span&gt;&lt;/div&gt;&lt;div&gt;&lt;br&gt;&lt;/div&gt;" style="text;html=1;align=left;verticalAlign=middle;resizable=0;points=[];autosize=1;strokeColor=none;fillColor=none;fontSize=10;" parent="1" vertex="1">
          <mxGeometry x="290" y="665" width="210" height="40" as="geometry" />
        </mxCell>
        <mxCell id="SaV__zoNHmYWTOLUJSNv-22" value="&lt;div&gt;&lt;br&gt;&lt;/div&gt;&lt;div&gt;&lt;span style=&quot;background-color: transparent; color: light-dark(rgb(0, 0, 0), rgb(255, 255, 255));&quot;&gt;비회원은 게시글을 조회(Read) 할 수 있다&lt;/span&gt;&lt;/div&gt;&lt;div&gt;&lt;br&gt;&lt;/div&gt;" style="text;html=1;align=left;verticalAlign=middle;resizable=0;points=[];autosize=1;strokeColor=none;fillColor=none;fontSize=10;" parent="1" vertex="1">
          <mxGeometry x="539" y="655" width="200" height="50" as="geometry" />
        </mxCell>
        <mxCell id="SaV__zoNHmYWTOLUJSNv-23" value="&lt;div&gt;&lt;span style=&quot;background-color: transparent; color: light-dark(rgb(0, 0, 0), rgb(255, 255, 255));&quot;&gt;관리자는&lt;/span&gt;&lt;span style=&quot;background-color: transparent; color: light-dark(rgb(0, 0, 0), rgb(255, 255, 255));&quot;&gt;&amp;nbsp;게시글을 등록(Create) 할 수 있다&lt;/span&gt;&lt;/div&gt;&lt;div&gt;&lt;span style=&quot;background-color: transparent; color: light-dark(rgb(0, 0, 0), rgb(255, 255, 255));&quot;&gt;관리자는&lt;/span&gt;&lt;span style=&quot;background-color: transparent; color: light-dark(rgb(0, 0, 0), rgb(255, 255, 255));&quot;&gt;&amp;nbsp;&lt;/span&gt;게시글을&lt;span style=&quot;background-color: transparent; color: light-dark(rgb(0, 0, 0), rgb(255, 255, 255));&quot;&gt;&amp;nbsp;조회(Read) 할 수 있다&lt;/span&gt;&lt;/div&gt;&lt;div&gt;&lt;span style=&quot;background-color: transparent; color: light-dark(rgb(0, 0, 0), rgb(255, 255, 255));&quot;&gt;관리자는&lt;/span&gt;&amp;nbsp;모든&amp;nbsp;&lt;span style=&quot;background-color: transparent; color: light-dark(rgb(0, 0, 0), rgb(255, 255, 255));&quot;&gt;게시글을&lt;/span&gt;&lt;span style=&quot;background-color: transparent; color: light-dark(rgb(0, 0, 0), rgb(255, 255, 255));&quot;&gt;&amp;nbsp;수정(Update) 할 수 있다&lt;/span&gt;&lt;/div&gt;&lt;div&gt;&lt;span style=&quot;background-color: transparent; color: light-dark(rgb(0, 0, 0), rgb(255, 255, 255));&quot;&gt;관리자는&lt;/span&gt;&amp;nbsp;모든&amp;nbsp;&lt;span style=&quot;background-color: transparent; color: light-dark(rgb(0, 0, 0), rgb(255, 255, 255));&quot;&gt;게시글을&lt;/span&gt;&lt;span style=&quot;background-color: transparent; color: light-dark(rgb(0, 0, 0), rgb(255, 255, 255));&quot;&gt;&amp;nbsp;&lt;/span&gt;&lt;span style=&quot;background-color: transparent; color: light-dark(rgb(0, 0, 0), rgb(255, 255, 255));&quot;&gt;삭제(Delete) 할 수 있다&lt;/span&gt;&lt;/div&gt;&lt;div&gt;&lt;br&gt;&lt;/div&gt;" style="text;html=1;align=left;verticalAlign=middle;resizable=0;points=[];autosize=1;strokeColor=none;fillColor=none;fontSize=10;" parent="1" vertex="1">
          <mxGeometry x="780" y="650" width="230" height="70" as="geometry" />
        </mxCell>
        <mxCell id="SaV__zoNHmYWTOLUJSNv-24" value="&lt;div&gt;&lt;br&gt;&lt;/div&gt;&lt;div&gt;&lt;span style=&quot;background-color: transparent; color: light-dark(rgb(0, 0, 0), rgb(255, 255, 255));&quot;&gt;비회원은 인재 정보를 조회(Read) 할 수 있다&lt;/span&gt;&lt;/div&gt;&lt;div&gt;&lt;br&gt;&lt;/div&gt;" style="text;html=1;align=left;verticalAlign=middle;resizable=0;points=[];autosize=1;strokeColor=none;fillColor=none;fontSize=10;" parent="1" vertex="1">
          <mxGeometry x="538" y="325" width="210" height="50" as="geometry" />
        </mxCell>
      </root>
    </mxGraphModel>
  </diagram>
  <diagram id="v3i4aUlxsLHgSQ-Cr0kq" name="페이지-2">
    <mxGraphModel dx="1188" dy="708" grid="1" gridSize="10" guides="1" tooltips="1" connect="1" arrows="1" fold="1" page="1" pageScale="1" pageWidth="827" pageHeight="1169" math="0" shadow="0">
      <root>
        <mxCell id="0" />
        <mxCell id="1" parent="0" />
        <mxCell id="r5XPe6oQm3-7lbEwXxo6-2" value="구인구직 프로그램" style="shape=umlFrame;whiteSpace=wrap;html=1;pointerEvents=0;width=110;height=20;fillColor=#dae8fc;strokeColor=#6c8ebf;" vertex="1" parent="1">
          <mxGeometry x="120" y="40" width="600" height="800" as="geometry" />
        </mxCell>
        <mxCell id="r5XPe6oQm3-7lbEwXxo6-3" value="개인회원" style="shape=umlActor;verticalLabelPosition=bottom;verticalAlign=top;html=1;" vertex="1" parent="1">
          <mxGeometry x="40" y="80" width="40" height="80" as="geometry" />
        </mxCell>
        <mxCell id="r5XPe6oQm3-7lbEwXxo6-4" value="비회원" style="shape=umlActor;verticalLabelPosition=bottom;verticalAlign=top;html=1;" vertex="1" parent="1">
          <mxGeometry x="40" y="565" width="40" height="80" as="geometry" />
        </mxCell>
        <mxCell id="r5XPe6oQm3-7lbEwXxo6-6" value="관리자" style="shape=umlActor;verticalLabelPosition=bottom;verticalAlign=top;html=1;" vertex="1" parent="1">
          <mxGeometry x="760" y="200" width="40" height="80" as="geometry" />
        </mxCell>
        <mxCell id="r5XPe6oQm3-7lbEwXxo6-15" value="로그인" style="ellipse;whiteSpace=wrap;html=1;" vertex="1" parent="1">
          <mxGeometry x="360" y="360" width="80" height="40" as="geometry" />
        </mxCell>
        <mxCell id="r5XPe6oQm3-7lbEwXxo6-23" value="회원가입" style="ellipse;whiteSpace=wrap;html=1;" vertex="1" parent="1">
          <mxGeometry x="320" y="585" width="80" height="40" as="geometry" />
        </mxCell>
        <mxCell id="r5XPe6oQm3-7lbEwXxo6-24" value="use" style="html=1;verticalAlign=bottom;endArrow=block;curved=0;rounded=0;exitX=0.5;exitY=0.5;exitDx=0;exitDy=0;exitPerimeter=0;" edge="1" parent="1" source="r5XPe6oQm3-7lbEwXxo6-4" target="r5XPe6oQm3-7lbEwXxo6-23">
          <mxGeometry width="80" relative="1" as="geometry">
            <mxPoint x="240" y="478" as="sourcePoint" />
            <mxPoint x="338" y="310" as="targetPoint" />
          </mxGeometry>
        </mxCell>
        <mxCell id="r5XPe6oQm3-7lbEwXxo6-25" value="include" style="endArrow=open;dashed=1;endFill=0;endSize=12;html=1;rounded=0;entryX=0.5;entryY=1;entryDx=0;entryDy=0;exitX=1;exitY=0.5;exitDx=0;exitDy=0;" edge="1" parent="1" source="r5XPe6oQm3-7lbEwXxo6-23" target="r5XPe6oQm3-7lbEwXxo6-15">
          <mxGeometry width="160" relative="1" as="geometry">
            <mxPoint x="600" y="220" as="sourcePoint" />
            <mxPoint x="556.4185592250642" y="228.6680735697489" as="targetPoint" />
          </mxGeometry>
        </mxCell>
        <mxCell id="r5XPe6oQm3-7lbEwXxo6-26" value="회원관리" style="ellipse;whiteSpace=wrap;html=1;" vertex="1" parent="1">
          <mxGeometry x="570" y="200" width="80" height="40" as="geometry" />
        </mxCell>
        <mxCell id="r5XPe6oQm3-7lbEwXxo6-27" style="edgeStyle=orthogonalEdgeStyle;rounded=0;orthogonalLoop=1;jettySize=auto;html=1;endArrow=block;endFill=0;" edge="1" parent="1" source="r5XPe6oQm3-7lbEwXxo6-28">
          <mxGeometry relative="1" as="geometry">
            <mxPoint x="610" y="240" as="targetPoint" />
            <Array as="points">
              <mxPoint x="550" y="260" />
              <mxPoint x="610" y="260" />
            </Array>
          </mxGeometry>
        </mxCell>
        <mxCell id="r5XPe6oQm3-7lbEwXxo6-28" value="조회" style="ellipse;whiteSpace=wrap;html=1;" vertex="1" parent="1">
          <mxGeometry x="530" y="280" width="40" height="40" as="geometry" />
        </mxCell>
        <mxCell id="r5XPe6oQm3-7lbEwXxo6-29" style="edgeStyle=orthogonalEdgeStyle;rounded=0;orthogonalLoop=1;jettySize=auto;html=1;entryX=0.5;entryY=1;entryDx=0;entryDy=0;endArrow=block;endFill=0;" edge="1" parent="1" source="r5XPe6oQm3-7lbEwXxo6-30" target="r5XPe6oQm3-7lbEwXxo6-26">
          <mxGeometry relative="1" as="geometry" />
        </mxCell>
        <mxCell id="r5XPe6oQm3-7lbEwXxo6-30" value="등록" style="ellipse;whiteSpace=wrap;html=1;" vertex="1" parent="1">
          <mxGeometry x="570" y="280" width="40" height="40" as="geometry" />
        </mxCell>
        <mxCell id="r5XPe6oQm3-7lbEwXxo6-31" style="edgeStyle=orthogonalEdgeStyle;rounded=0;orthogonalLoop=1;jettySize=auto;html=1;endArrow=block;endFill=0;" edge="1" parent="1" source="r5XPe6oQm3-7lbEwXxo6-32">
          <mxGeometry relative="1" as="geometry">
            <mxPoint x="610" y="240" as="targetPoint" />
          </mxGeometry>
        </mxCell>
        <mxCell id="r5XPe6oQm3-7lbEwXxo6-32" value="수정" style="ellipse;whiteSpace=wrap;html=1;" vertex="1" parent="1">
          <mxGeometry x="610" y="280" width="40" height="40" as="geometry" />
        </mxCell>
        <mxCell id="r5XPe6oQm3-7lbEwXxo6-33" style="edgeStyle=orthogonalEdgeStyle;rounded=0;orthogonalLoop=1;jettySize=auto;html=1;entryX=0.5;entryY=1;entryDx=0;entryDy=0;endArrow=block;endFill=0;" edge="1" parent="1" source="r5XPe6oQm3-7lbEwXxo6-34" target="r5XPe6oQm3-7lbEwXxo6-26">
          <mxGeometry relative="1" as="geometry" />
        </mxCell>
        <mxCell id="r5XPe6oQm3-7lbEwXxo6-34" value="삭제" style="ellipse;whiteSpace=wrap;html=1;" vertex="1" parent="1">
          <mxGeometry x="650" y="280" width="40" height="40" as="geometry" />
        </mxCell>
        <mxCell id="r5XPe6oQm3-7lbEwXxo6-35" value="use" style="html=1;verticalAlign=bottom;endArrow=block;curved=0;rounded=0;exitX=0.494;exitY=0.339;exitDx=0;exitDy=0;exitPerimeter=0;entryX=1;entryY=0.5;entryDx=0;entryDy=0;" edge="1" parent="1" source="r5XPe6oQm3-7lbEwXxo6-6" target="r5XPe6oQm3-7lbEwXxo6-26">
          <mxGeometry width="80" relative="1" as="geometry">
            <mxPoint x="769" y="310" as="sourcePoint" />
            <mxPoint x="670" y="343" as="targetPoint" />
          </mxGeometry>
        </mxCell>
        <mxCell id="r5XPe6oQm3-7lbEwXxo6-39" value="&lt;span style=&quot;font-size: 13px;&quot;&gt;개인 회원&lt;/span&gt;" style="ellipse;whiteSpace=wrap;html=1;align=center;" vertex="1" parent="1">
          <mxGeometry x="510" y="360" width="40" height="40" as="geometry" />
        </mxCell>
        <mxCell id="r5XPe6oQm3-7lbEwXxo6-40" style="edgeStyle=orthogonalEdgeStyle;rounded=0;orthogonalLoop=1;jettySize=auto;html=1;endArrow=block;endFill=0;" edge="1" parent="1">
          <mxGeometry relative="1" as="geometry">
            <mxPoint x="550" y="320" as="targetPoint" />
            <mxPoint x="550.0344827586207" y="330" as="sourcePoint" />
          </mxGeometry>
        </mxCell>
        <mxCell id="r5XPe6oQm3-7lbEwXxo6-41" style="edgeStyle=orthogonalEdgeStyle;rounded=0;orthogonalLoop=1;jettySize=auto;html=1;exitX=0.5;exitY=0;exitDx=0;exitDy=0;endArrow=open;endFill=0;dashed=1;entryX=0.5;entryY=1;entryDx=0;entryDy=0;" edge="1" parent="1" source="r5XPe6oQm3-7lbEwXxo6-42" target="r5XPe6oQm3-7lbEwXxo6-28">
          <mxGeometry relative="1" as="geometry">
            <mxPoint x="500" y="520" as="targetPoint" />
          </mxGeometry>
        </mxCell>
        <mxCell id="r5XPe6oQm3-7lbEwXxo6-42" value="&lt;font style=&quot;font-size: 13px;&quot;&gt;기업 회원&lt;/font&gt;" style="ellipse;whiteSpace=wrap;html=1;align=center;" vertex="1" parent="1">
          <mxGeometry x="550" y="360" width="40" height="40" as="geometry" />
        </mxCell>
        <mxCell id="r5XPe6oQm3-7lbEwXxo6-45" value="" style="html=1;verticalAlign=bottom;endArrow=open;curved=0;rounded=0;exitX=0.5;exitY=0;exitDx=0;exitDy=0;entryX=0.5;entryY=1;entryDx=0;entryDy=0;endFill=0;dashed=1;" edge="1" parent="1" source="r5XPe6oQm3-7lbEwXxo6-39" target="r5XPe6oQm3-7lbEwXxo6-28">
          <mxGeometry width="80" relative="1" as="geometry">
            <mxPoint x="320" y="540" as="sourcePoint" />
            <mxPoint x="400" y="540" as="targetPoint" />
            <Array as="points">
              <mxPoint x="530" y="340" />
              <mxPoint x="550" y="340" />
            </Array>
          </mxGeometry>
        </mxCell>
        <mxCell id="r5XPe6oQm3-7lbEwXxo6-46" value="extend" style="text;html=1;align=center;verticalAlign=middle;resizable=0;points=[];autosize=1;strokeColor=none;fillColor=none;" vertex="1" parent="1">
          <mxGeometry x="520" y="330" width="60" height="30" as="geometry" />
        </mxCell>
        <mxCell id="r5XPe6oQm3-7lbEwXxo6-48" value="기업회원" style="shape=umlActor;verticalLabelPosition=bottom;verticalAlign=top;html=1;" vertex="1" parent="1">
          <mxGeometry x="40" y="360" width="40" height="80" as="geometry" />
        </mxCell>
        <mxCell id="sJw32_HtgTi5GDTLBJGJ-1" value="이력서" style="ellipse;whiteSpace=wrap;html=1;" vertex="1" parent="1">
          <mxGeometry x="470" y="500" width="80" height="40" as="geometry" />
        </mxCell>
        <mxCell id="sJw32_HtgTi5GDTLBJGJ-4" style="edgeStyle=orthogonalEdgeStyle;rounded=0;orthogonalLoop=1;jettySize=auto;html=1;entryX=0.5;entryY=1;entryDx=0;entryDy=0;endArrow=block;endFill=0;" edge="1" parent="1" source="sJw32_HtgTi5GDTLBJGJ-5" target="sJw32_HtgTi5GDTLBJGJ-1">
          <mxGeometry relative="1" as="geometry" />
        </mxCell>
        <mxCell id="sJw32_HtgTi5GDTLBJGJ-5" value="등록" style="ellipse;whiteSpace=wrap;html=1;" vertex="1" parent="1">
          <mxGeometry x="450" y="580" width="40" height="40" as="geometry" />
        </mxCell>
        <mxCell id="sJw32_HtgTi5GDTLBJGJ-6" style="edgeStyle=orthogonalEdgeStyle;rounded=0;orthogonalLoop=1;jettySize=auto;html=1;endArrow=block;endFill=0;" edge="1" parent="1" source="sJw32_HtgTi5GDTLBJGJ-7">
          <mxGeometry relative="1" as="geometry">
            <mxPoint x="510" y="540" as="targetPoint" />
          </mxGeometry>
        </mxCell>
        <mxCell id="sJw32_HtgTi5GDTLBJGJ-7" value="수정" style="ellipse;whiteSpace=wrap;html=1;" vertex="1" parent="1">
          <mxGeometry x="490" y="580" width="40" height="40" as="geometry" />
        </mxCell>
        <mxCell id="sJw32_HtgTi5GDTLBJGJ-8" style="edgeStyle=orthogonalEdgeStyle;rounded=0;orthogonalLoop=1;jettySize=auto;html=1;entryX=0.5;entryY=1;entryDx=0;entryDy=0;endArrow=block;endFill=0;" edge="1" parent="1" source="sJw32_HtgTi5GDTLBJGJ-9" target="sJw32_HtgTi5GDTLBJGJ-1">
          <mxGeometry relative="1" as="geometry" />
        </mxCell>
        <mxCell id="sJw32_HtgTi5GDTLBJGJ-9" value="삭제" style="ellipse;whiteSpace=wrap;html=1;" vertex="1" parent="1">
          <mxGeometry x="530" y="580" width="40" height="40" as="geometry" />
        </mxCell>
        <mxCell id="sJw32_HtgTi5GDTLBJGJ-13" value="extend" style="endArrow=block;dashed=1;html=1;rounded=0;endFill=0;entryX=0;entryY=0.5;entryDx=0;entryDy=0;" edge="1" parent="1" target="r5XPe6oQm3-7lbEwXxo6-28">
          <mxGeometry width="50" height="50" relative="1" as="geometry">
            <mxPoint x="280" y="239.31" as="sourcePoint" />
            <mxPoint x="530.0000000000082" y="239.31000000000012" as="targetPoint" />
          </mxGeometry>
        </mxCell>
        <mxCell id="sJw32_HtgTi5GDTLBJGJ-14" value="&lt;span style=&quot;font-size: 13px;&quot;&gt;마이페이지&lt;/span&gt;" style="ellipse;whiteSpace=wrap;html=1;" vertex="1" parent="1">
          <mxGeometry x="200" y="220" width="80" height="40" as="geometry" />
        </mxCell>
        <mxCell id="sJw32_HtgTi5GDTLBJGJ-15" style="edgeStyle=orthogonalEdgeStyle;rounded=0;orthogonalLoop=1;jettySize=auto;html=1;endArrow=block;endFill=0;" edge="1" parent="1" source="sJw32_HtgTi5GDTLBJGJ-16">
          <mxGeometry relative="1" as="geometry">
            <mxPoint x="240" y="260" as="targetPoint" />
            <Array as="points">
              <mxPoint x="180" y="280" />
              <mxPoint x="240" y="280" />
            </Array>
          </mxGeometry>
        </mxCell>
        <mxCell id="sJw32_HtgTi5GDTLBJGJ-16" value="조회" style="ellipse;whiteSpace=wrap;html=1;" vertex="1" parent="1">
          <mxGeometry x="160" y="300" width="40" height="40" as="geometry" />
        </mxCell>
        <mxCell id="sJw32_HtgTi5GDTLBJGJ-17" style="edgeStyle=orthogonalEdgeStyle;rounded=0;orthogonalLoop=1;jettySize=auto;html=1;entryX=0.5;entryY=1;entryDx=0;entryDy=0;endArrow=block;endFill=0;" edge="1" parent="1" source="sJw32_HtgTi5GDTLBJGJ-18" target="sJw32_HtgTi5GDTLBJGJ-14">
          <mxGeometry relative="1" as="geometry" />
        </mxCell>
        <mxCell id="sJw32_HtgTi5GDTLBJGJ-18" value="등록" style="ellipse;whiteSpace=wrap;html=1;" vertex="1" parent="1">
          <mxGeometry x="200" y="300" width="40" height="40" as="geometry" />
        </mxCell>
        <mxCell id="sJw32_HtgTi5GDTLBJGJ-19" style="edgeStyle=orthogonalEdgeStyle;rounded=0;orthogonalLoop=1;jettySize=auto;html=1;endArrow=block;endFill=0;" edge="1" parent="1" source="sJw32_HtgTi5GDTLBJGJ-20">
          <mxGeometry relative="1" as="geometry">
            <mxPoint x="240" y="260" as="targetPoint" />
          </mxGeometry>
        </mxCell>
        <mxCell id="sJw32_HtgTi5GDTLBJGJ-20" value="수정" style="ellipse;whiteSpace=wrap;html=1;" vertex="1" parent="1">
          <mxGeometry x="240" y="300" width="40" height="40" as="geometry" />
        </mxCell>
        <mxCell id="sJw32_HtgTi5GDTLBJGJ-21" style="edgeStyle=orthogonalEdgeStyle;rounded=0;orthogonalLoop=1;jettySize=auto;html=1;entryX=0.5;entryY=1;entryDx=0;entryDy=0;endArrow=block;endFill=0;" edge="1" parent="1" source="sJw32_HtgTi5GDTLBJGJ-22" target="sJw32_HtgTi5GDTLBJGJ-14">
          <mxGeometry relative="1" as="geometry" />
        </mxCell>
        <mxCell id="sJw32_HtgTi5GDTLBJGJ-22" value="삭제" style="ellipse;whiteSpace=wrap;html=1;" vertex="1" parent="1">
          <mxGeometry x="280" y="300" width="40" height="40" as="geometry" />
        </mxCell>
        <mxCell id="46mm8ylK3mEJE5ll-KXO-1" value="include" style="endArrow=open;dashed=1;endFill=0;endSize=12;html=1;rounded=0;entryX=0.5;entryY=0;entryDx=0;entryDy=0;exitX=1;exitY=1;exitDx=0;exitDy=0;" edge="1" parent="1" source="sJw32_HtgTi5GDTLBJGJ-14" target="r5XPe6oQm3-7lbEwXxo6-15">
          <mxGeometry width="160" relative="1" as="geometry">
            <mxPoint x="360" y="360" as="sourcePoint" />
            <mxPoint x="440" y="360" as="targetPoint" />
          </mxGeometry>
        </mxCell>
        <mxCell id="46mm8ylK3mEJE5ll-KXO-2" value="use" style="html=1;verticalAlign=bottom;endArrow=block;curved=0;rounded=0;exitX=0.5;exitY=0.5;exitDx=0;exitDy=0;exitPerimeter=0;entryX=0;entryY=0.5;entryDx=0;entryDy=0;" edge="1" parent="1" source="r5XPe6oQm3-7lbEwXxo6-48" target="sJw32_HtgTi5GDTLBJGJ-14">
          <mxGeometry width="80" relative="1" as="geometry">
            <mxPoint x="160" y="610" as="sourcePoint" />
            <mxPoint x="260" y="310" as="targetPoint" />
          </mxGeometry>
        </mxCell>
        <mxCell id="yKyUEUsvl3Pwgb9q8GnD-2" value="채용공고" style="ellipse;whiteSpace=wrap;html=1;" vertex="1" parent="1">
          <mxGeometry x="200" y="80" width="80" height="40" as="geometry" />
        </mxCell>
        <mxCell id="yKyUEUsvl3Pwgb9q8GnD-5" style="edgeStyle=orthogonalEdgeStyle;rounded=0;orthogonalLoop=1;jettySize=auto;html=1;entryX=0.5;entryY=1;entryDx=0;entryDy=0;endArrow=block;endFill=0;" edge="1" parent="1" source="yKyUEUsvl3Pwgb9q8GnD-6" target="yKyUEUsvl3Pwgb9q8GnD-2">
          <mxGeometry relative="1" as="geometry" />
        </mxCell>
        <mxCell id="yKyUEUsvl3Pwgb9q8GnD-6" value="등록" style="ellipse;whiteSpace=wrap;html=1;" vertex="1" parent="1">
          <mxGeometry x="180" y="160" width="40" height="40" as="geometry" />
        </mxCell>
        <mxCell id="yKyUEUsvl3Pwgb9q8GnD-7" style="edgeStyle=orthogonalEdgeStyle;rounded=0;orthogonalLoop=1;jettySize=auto;html=1;endArrow=block;endFill=0;" edge="1" parent="1" source="yKyUEUsvl3Pwgb9q8GnD-8">
          <mxGeometry relative="1" as="geometry">
            <mxPoint x="240" y="120" as="targetPoint" />
          </mxGeometry>
        </mxCell>
        <mxCell id="yKyUEUsvl3Pwgb9q8GnD-8" value="수정" style="ellipse;whiteSpace=wrap;html=1;" vertex="1" parent="1">
          <mxGeometry x="220" y="160" width="40" height="40" as="geometry" />
        </mxCell>
        <mxCell id="yKyUEUsvl3Pwgb9q8GnD-9" style="edgeStyle=orthogonalEdgeStyle;rounded=0;orthogonalLoop=1;jettySize=auto;html=1;entryX=0.5;entryY=1;entryDx=0;entryDy=0;endArrow=block;endFill=0;" edge="1" parent="1" source="yKyUEUsvl3Pwgb9q8GnD-10" target="yKyUEUsvl3Pwgb9q8GnD-2">
          <mxGeometry relative="1" as="geometry" />
        </mxCell>
        <mxCell id="yKyUEUsvl3Pwgb9q8GnD-10" value="삭제" style="ellipse;whiteSpace=wrap;html=1;" vertex="1" parent="1">
          <mxGeometry x="260" y="160" width="40" height="40" as="geometry" />
        </mxCell>
        <mxCell id="yKyUEUsvl3Pwgb9q8GnD-12" value="use" style="html=1;verticalAlign=bottom;endArrow=block;curved=0;rounded=0;exitX=0.511;exitY=0.365;exitDx=0;exitDy=0;exitPerimeter=0;entryX=0;entryY=0;entryDx=0;entryDy=0;" edge="1" parent="1" source="r5XPe6oQm3-7lbEwXxo6-3" target="sJw32_HtgTi5GDTLBJGJ-14">
          <mxGeometry width="80" relative="1" as="geometry">
            <mxPoint x="150" y="420" as="sourcePoint" />
            <mxPoint x="290" y="260" as="targetPoint" />
          </mxGeometry>
        </mxCell>
        <mxCell id="yKyUEUsvl3Pwgb9q8GnD-13" value="use" style="html=1;verticalAlign=bottom;endArrow=block;curved=0;rounded=0;exitX=0.511;exitY=0.356;exitDx=0;exitDy=0;exitPerimeter=0;entryX=0;entryY=0.5;entryDx=0;entryDy=0;" edge="1" parent="1" source="r5XPe6oQm3-7lbEwXxo6-3" target="yKyUEUsvl3Pwgb9q8GnD-2">
          <mxGeometry width="80" relative="1" as="geometry">
            <mxPoint x="300" y="80" as="sourcePoint" />
            <mxPoint x="452" y="197" as="targetPoint" />
          </mxGeometry>
        </mxCell>
        <mxCell id="yKyUEUsvl3Pwgb9q8GnD-15" value="채용공고 및 이력서&amp;nbsp; &amp;nbsp; 조회" style="ellipse;whiteSpace=wrap;html=1;" vertex="1" parent="1">
          <mxGeometry x="170" y="460" width="120" height="40" as="geometry" />
        </mxCell>
        <mxCell id="yKyUEUsvl3Pwgb9q8GnD-16" value="use" style="html=1;verticalAlign=bottom;endArrow=block;curved=0;rounded=0;entryX=0;entryY=1;entryDx=0;entryDy=0;exitX=0.5;exitY=0.5;exitDx=0;exitDy=0;exitPerimeter=0;" edge="1" parent="1" source="r5XPe6oQm3-7lbEwXxo6-4" target="yKyUEUsvl3Pwgb9q8GnD-15">
          <mxGeometry width="80" relative="1" as="geometry">
            <mxPoint x="60" y="680" as="sourcePoint" />
            <mxPoint x="160" y="539.66" as="targetPoint" />
            <Array as="points" />
          </mxGeometry>
        </mxCell>
        <mxCell id="yKyUEUsvl3Pwgb9q8GnD-17" value="use" style="html=1;verticalAlign=bottom;endArrow=block;curved=0;rounded=0;entryX=0;entryY=0.5;entryDx=0;entryDy=0;exitX=0.5;exitY=0.5;exitDx=0;exitDy=0;exitPerimeter=0;" edge="1" parent="1" source="r5XPe6oQm3-7lbEwXxo6-48" target="yKyUEUsvl3Pwgb9q8GnD-15">
          <mxGeometry width="80" relative="1" as="geometry">
            <mxPoint x="260" y="706" as="sourcePoint" />
            <mxPoint x="378" y="580" as="targetPoint" />
          </mxGeometry>
        </mxCell>
        <mxCell id="yKyUEUsvl3Pwgb9q8GnD-18" value="use" style="html=1;verticalAlign=bottom;endArrow=block;curved=0;rounded=0;entryX=0;entryY=0;entryDx=0;entryDy=0;exitX=0.477;exitY=0.322;exitDx=0;exitDy=0;exitPerimeter=0;" edge="1" parent="1" source="r5XPe6oQm3-7lbEwXxo6-3" target="yKyUEUsvl3Pwgb9q8GnD-15">
          <mxGeometry x="-0.3571" y="3" width="80" relative="1" as="geometry">
            <mxPoint x="90" y="380" as="sourcePoint" />
            <mxPoint x="190" y="520" as="targetPoint" />
            <mxPoint as="offset" />
          </mxGeometry>
        </mxCell>
        <mxCell id="yKyUEUsvl3Pwgb9q8GnD-19" value="use" style="html=1;verticalAlign=bottom;endArrow=block;curved=0;rounded=0;entryX=0;entryY=1;entryDx=0;entryDy=0;" edge="1" parent="1" target="yKyUEUsvl3Pwgb9q8GnD-2">
          <mxGeometry width="80" relative="1" as="geometry">
            <mxPoint x="60" y="400" as="sourcePoint" />
            <mxPoint x="460" y="260" as="targetPoint" />
          </mxGeometry>
        </mxCell>
        <mxCell id="yKyUEUsvl3Pwgb9q8GnD-21" value="조회" style="ellipse;whiteSpace=wrap;html=1;" vertex="1" parent="1">
          <mxGeometry x="490" y="440" width="40" height="40" as="geometry" />
        </mxCell>
        <mxCell id="yKyUEUsvl3Pwgb9q8GnD-22" value="" style="endArrow=block;html=1;rounded=0;entryX=0.5;entryY=0;entryDx=0;entryDy=0;exitX=0.5;exitY=1;exitDx=0;exitDy=0;endFill=0;" edge="1" parent="1" source="yKyUEUsvl3Pwgb9q8GnD-21" target="sJw32_HtgTi5GDTLBJGJ-1">
          <mxGeometry width="50" height="50" relative="1" as="geometry">
            <mxPoint x="440" y="420" as="sourcePoint" />
            <mxPoint x="490" y="370" as="targetPoint" />
          </mxGeometry>
        </mxCell>
      </root>
    </mxGraphModel>
  </diagram>
  <diagram name="페이지-2의 복사본" id="rbkZIed0KSFZOcOg7O89">
    <mxGraphModel dx="1426" dy="849" grid="1" gridSize="10" guides="1" tooltips="1" connect="1" arrows="1" fold="1" page="1" pageScale="1" pageWidth="827" pageHeight="1169" math="0" shadow="0">
      <root>
        <mxCell id="gg7kWlv7hK0jXm-3Od6L-0" />
        <mxCell id="gg7kWlv7hK0jXm-3Od6L-1" parent="gg7kWlv7hK0jXm-3Od6L-0" />
        <mxCell id="gg7kWlv7hK0jXm-3Od6L-2" value="구인구직 프로그램" style="shape=umlFrame;whiteSpace=wrap;html=1;pointerEvents=0;width=110;height=20;fillColor=#dae8fc;strokeColor=#6c8ebf;" vertex="1" parent="gg7kWlv7hK0jXm-3Od6L-1">
          <mxGeometry x="120" y="40" width="600" height="800" as="geometry" />
        </mxCell>
        <mxCell id="q49WcJXi1EmbXdUbP7iP-13" style="edgeStyle=orthogonalEdgeStyle;rounded=0;orthogonalLoop=1;jettySize=auto;html=1;exitX=0.5;exitY=0.5;exitDx=0;exitDy=0;exitPerimeter=0;entryX=0.5;entryY=0;entryDx=0;entryDy=0;" edge="1" parent="gg7kWlv7hK0jXm-3Od6L-1" source="gg7kWlv7hK0jXm-3Od6L-3" target="iGifAfr__MeMplPH2VUG-7">
          <mxGeometry relative="1" as="geometry">
            <Array as="points">
              <mxPoint x="60" y="110" />
              <mxPoint x="100" y="110" />
              <mxPoint x="100" y="70" />
              <mxPoint x="390" y="70" />
            </Array>
          </mxGeometry>
        </mxCell>
        <mxCell id="q49WcJXi1EmbXdUbP7iP-20" style="edgeStyle=orthogonalEdgeStyle;rounded=0;orthogonalLoop=1;jettySize=auto;html=1;exitX=0.525;exitY=0.388;exitDx=0;exitDy=0;exitPerimeter=0;entryX=0.5;entryY=0;entryDx=0;entryDy=0;" edge="1" parent="gg7kWlv7hK0jXm-3Od6L-1" source="gg7kWlv7hK0jXm-3Od6L-3" target="gg7kWlv7hK0jXm-3Od6L-60">
          <mxGeometry relative="1" as="geometry">
            <Array as="points">
              <mxPoint x="80" y="111" />
              <mxPoint x="80" y="110" />
              <mxPoint x="100" y="110" />
              <mxPoint x="100" y="70" />
              <mxPoint x="390" y="70" />
              <mxPoint x="390" y="100" />
              <mxPoint x="260" y="100" />
            </Array>
          </mxGeometry>
        </mxCell>
        <mxCell id="gg7kWlv7hK0jXm-3Od6L-3" value="개인회원" style="shape=umlActor;verticalLabelPosition=bottom;verticalAlign=top;html=1;" vertex="1" parent="gg7kWlv7hK0jXm-3Od6L-1">
          <mxGeometry x="40" y="80" width="40" height="80" as="geometry" />
        </mxCell>
        <mxCell id="q49WcJXi1EmbXdUbP7iP-22" style="edgeStyle=orthogonalEdgeStyle;rounded=0;orthogonalLoop=1;jettySize=auto;html=1;entryX=1;entryY=0.5;entryDx=0;entryDy=0;" edge="1" parent="gg7kWlv7hK0jXm-3Od6L-1" target="gg7kWlv7hK0jXm-3Od6L-60">
          <mxGeometry relative="1" as="geometry">
            <mxPoint x="110" y="110" as="targetPoint" />
            <mxPoint x="80" y="590" as="sourcePoint" />
            <Array as="points">
              <mxPoint x="140" y="590" />
              <mxPoint x="140" y="120" />
              <mxPoint x="320" y="120" />
              <mxPoint x="320" y="150" />
            </Array>
          </mxGeometry>
        </mxCell>
        <mxCell id="gg7kWlv7hK0jXm-3Od6L-4" value="비회원" style="shape=umlActor;verticalLabelPosition=bottom;verticalAlign=top;html=1;" vertex="1" parent="gg7kWlv7hK0jXm-3Od6L-1">
          <mxGeometry x="40" y="565" width="40" height="80" as="geometry" />
        </mxCell>
        <mxCell id="gg7kWlv7hK0jXm-3Od6L-5" value="관리자" style="shape=umlActor;verticalLabelPosition=bottom;verticalAlign=top;html=1;" vertex="1" parent="gg7kWlv7hK0jXm-3Od6L-1">
          <mxGeometry x="760" y="200" width="40" height="80" as="geometry" />
        </mxCell>
        <mxCell id="gg7kWlv7hK0jXm-3Od6L-6" value="로그인" style="ellipse;whiteSpace=wrap;html=1;" vertex="1" parent="gg7kWlv7hK0jXm-3Od6L-1">
          <mxGeometry x="350" y="410" width="80" height="40" as="geometry" />
        </mxCell>
        <mxCell id="q49WcJXi1EmbXdUbP7iP-9" style="edgeStyle=orthogonalEdgeStyle;rounded=0;orthogonalLoop=1;jettySize=auto;html=1;exitX=0.5;exitY=0.5;exitDx=0;exitDy=0;exitPerimeter=0;entryX=0.5;entryY=0;entryDx=0;entryDy=0;" edge="1" parent="gg7kWlv7hK0jXm-3Od6L-1" source="gg7kWlv7hK0jXm-3Od6L-26" target="iGifAfr__MeMplPH2VUG-16">
          <mxGeometry relative="1" as="geometry">
            <mxPoint x="100" y="70" as="targetPoint" />
            <Array as="points">
              <mxPoint x="100" y="400" />
              <mxPoint x="100" y="70" />
              <mxPoint x="390" y="70" />
              <mxPoint x="390" y="100" />
              <mxPoint x="520" y="100" />
            </Array>
          </mxGeometry>
        </mxCell>
        <mxCell id="q49WcJXi1EmbXdUbP7iP-14" style="edgeStyle=orthogonalEdgeStyle;rounded=0;orthogonalLoop=1;jettySize=auto;html=1;exitX=0.5;exitY=0.5;exitDx=0;exitDy=0;exitPerimeter=0;entryX=0.5;entryY=0;entryDx=0;entryDy=0;" edge="1" parent="gg7kWlv7hK0jXm-3Od6L-1" source="gg7kWlv7hK0jXm-3Od6L-26" target="iGifAfr__MeMplPH2VUG-7">
          <mxGeometry relative="1" as="geometry">
            <Array as="points">
              <mxPoint x="100" y="400" />
              <mxPoint x="100" y="70" />
              <mxPoint x="390" y="70" />
            </Array>
          </mxGeometry>
        </mxCell>
        <mxCell id="q49WcJXi1EmbXdUbP7iP-17" style="edgeStyle=orthogonalEdgeStyle;rounded=0;orthogonalLoop=1;jettySize=auto;html=1;exitX=0.5;exitY=0.5;exitDx=0;exitDy=0;exitPerimeter=0;entryX=0.5;entryY=0;entryDx=0;entryDy=0;" edge="1" parent="gg7kWlv7hK0jXm-3Od6L-1" source="gg7kWlv7hK0jXm-3Od6L-26" target="gg7kWlv7hK0jXm-3Od6L-60">
          <mxGeometry relative="1" as="geometry">
            <Array as="points">
              <mxPoint x="100" y="400" />
              <mxPoint x="100" y="70" />
              <mxPoint x="390" y="70" />
              <mxPoint x="390" y="100" />
              <mxPoint x="260" y="100" />
            </Array>
          </mxGeometry>
        </mxCell>
        <mxCell id="gg7kWlv7hK0jXm-3Od6L-26" value="기업회원" style="shape=umlActor;verticalLabelPosition=bottom;verticalAlign=top;html=1;" vertex="1" parent="gg7kWlv7hK0jXm-3Od6L-1">
          <mxGeometry x="40" y="360" width="40" height="80" as="geometry" />
        </mxCell>
        <mxCell id="gg7kWlv7hK0jXm-3Od6L-27" value="이력서" style="ellipse;whiteSpace=wrap;html=1;" vertex="1" parent="gg7kWlv7hK0jXm-3Od6L-1">
          <mxGeometry x="220" y="190" width="80" height="40" as="geometry" />
        </mxCell>
        <mxCell id="gg7kWlv7hK0jXm-3Od6L-28" style="edgeStyle=orthogonalEdgeStyle;rounded=0;orthogonalLoop=1;jettySize=auto;html=1;entryX=0.5;entryY=1;entryDx=0;entryDy=0;endArrow=block;endFill=0;" edge="1" parent="gg7kWlv7hK0jXm-3Od6L-1" source="gg7kWlv7hK0jXm-3Od6L-29" target="gg7kWlv7hK0jXm-3Od6L-27">
          <mxGeometry relative="1" as="geometry" />
        </mxCell>
        <mxCell id="gg7kWlv7hK0jXm-3Od6L-29" value="등록" style="ellipse;whiteSpace=wrap;html=1;" vertex="1" parent="gg7kWlv7hK0jXm-3Od6L-1">
          <mxGeometry x="200" y="270" width="40" height="40" as="geometry" />
        </mxCell>
        <mxCell id="gg7kWlv7hK0jXm-3Od6L-30" style="edgeStyle=orthogonalEdgeStyle;rounded=0;orthogonalLoop=1;jettySize=auto;html=1;endArrow=block;endFill=0;" edge="1" parent="gg7kWlv7hK0jXm-3Od6L-1" source="gg7kWlv7hK0jXm-3Od6L-31">
          <mxGeometry relative="1" as="geometry">
            <mxPoint x="260" y="230" as="targetPoint" />
          </mxGeometry>
        </mxCell>
        <mxCell id="gg7kWlv7hK0jXm-3Od6L-31" value="수정" style="ellipse;whiteSpace=wrap;html=1;" vertex="1" parent="gg7kWlv7hK0jXm-3Od6L-1">
          <mxGeometry x="240" y="270" width="40" height="40" as="geometry" />
        </mxCell>
        <mxCell id="gg7kWlv7hK0jXm-3Od6L-32" style="edgeStyle=orthogonalEdgeStyle;rounded=0;orthogonalLoop=1;jettySize=auto;html=1;entryX=0.5;entryY=1;entryDx=0;entryDy=0;endArrow=block;endFill=0;" edge="1" parent="gg7kWlv7hK0jXm-3Od6L-1" source="gg7kWlv7hK0jXm-3Od6L-33" target="gg7kWlv7hK0jXm-3Od6L-27">
          <mxGeometry relative="1" as="geometry" />
        </mxCell>
        <mxCell id="gg7kWlv7hK0jXm-3Od6L-33" value="삭제" style="ellipse;whiteSpace=wrap;html=1;" vertex="1" parent="gg7kWlv7hK0jXm-3Od6L-1">
          <mxGeometry x="280" y="270" width="40" height="40" as="geometry" />
        </mxCell>
        <mxCell id="gg7kWlv7hK0jXm-3Od6L-60" value="조회" style="ellipse;whiteSpace=wrap;html=1;" vertex="1" parent="gg7kWlv7hK0jXm-3Od6L-1">
          <mxGeometry x="240" y="130" width="40" height="40" as="geometry" />
        </mxCell>
        <mxCell id="gg7kWlv7hK0jXm-3Od6L-61" value="" style="endArrow=block;html=1;rounded=0;entryX=0.5;entryY=0;entryDx=0;entryDy=0;exitX=0.5;exitY=1;exitDx=0;exitDy=0;endFill=0;" edge="1" parent="gg7kWlv7hK0jXm-3Od6L-1" source="gg7kWlv7hK0jXm-3Od6L-60" target="gg7kWlv7hK0jXm-3Od6L-27">
          <mxGeometry width="50" height="50" relative="1" as="geometry">
            <mxPoint x="190" y="110" as="sourcePoint" />
            <mxPoint x="240" y="60" as="targetPoint" />
          </mxGeometry>
        </mxCell>
        <mxCell id="iGifAfr__MeMplPH2VUG-0" value="채용공고" style="ellipse;whiteSpace=wrap;html=1;" vertex="1" parent="gg7kWlv7hK0jXm-3Od6L-1">
          <mxGeometry x="350" y="190" width="80" height="40" as="geometry" />
        </mxCell>
        <mxCell id="iGifAfr__MeMplPH2VUG-1" style="edgeStyle=orthogonalEdgeStyle;rounded=0;orthogonalLoop=1;jettySize=auto;html=1;entryX=0.5;entryY=1;entryDx=0;entryDy=0;endArrow=block;endFill=0;" edge="1" parent="gg7kWlv7hK0jXm-3Od6L-1" source="iGifAfr__MeMplPH2VUG-2" target="iGifAfr__MeMplPH2VUG-0">
          <mxGeometry relative="1" as="geometry" />
        </mxCell>
        <mxCell id="iGifAfr__MeMplPH2VUG-2" value="등록" style="ellipse;whiteSpace=wrap;html=1;" vertex="1" parent="gg7kWlv7hK0jXm-3Od6L-1">
          <mxGeometry x="330" y="270" width="40" height="40" as="geometry" />
        </mxCell>
        <mxCell id="iGifAfr__MeMplPH2VUG-3" style="edgeStyle=orthogonalEdgeStyle;rounded=0;orthogonalLoop=1;jettySize=auto;html=1;endArrow=block;endFill=0;" edge="1" parent="gg7kWlv7hK0jXm-3Od6L-1" source="iGifAfr__MeMplPH2VUG-4">
          <mxGeometry relative="1" as="geometry">
            <mxPoint x="390" y="230" as="targetPoint" />
          </mxGeometry>
        </mxCell>
        <mxCell id="iGifAfr__MeMplPH2VUG-4" value="수정" style="ellipse;whiteSpace=wrap;html=1;" vertex="1" parent="gg7kWlv7hK0jXm-3Od6L-1">
          <mxGeometry x="370" y="270" width="40" height="40" as="geometry" />
        </mxCell>
        <mxCell id="iGifAfr__MeMplPH2VUG-5" style="edgeStyle=orthogonalEdgeStyle;rounded=0;orthogonalLoop=1;jettySize=auto;html=1;entryX=0.5;entryY=1;entryDx=0;entryDy=0;endArrow=block;endFill=0;" edge="1" parent="gg7kWlv7hK0jXm-3Od6L-1" source="iGifAfr__MeMplPH2VUG-6" target="iGifAfr__MeMplPH2VUG-0">
          <mxGeometry relative="1" as="geometry" />
        </mxCell>
        <mxCell id="iGifAfr__MeMplPH2VUG-6" value="삭제" style="ellipse;whiteSpace=wrap;html=1;" vertex="1" parent="gg7kWlv7hK0jXm-3Od6L-1">
          <mxGeometry x="410" y="270" width="40" height="40" as="geometry" />
        </mxCell>
        <mxCell id="iGifAfr__MeMplPH2VUG-7" value="조회" style="ellipse;whiteSpace=wrap;html=1;" vertex="1" parent="gg7kWlv7hK0jXm-3Od6L-1">
          <mxGeometry x="370" y="130" width="40" height="40" as="geometry" />
        </mxCell>
        <mxCell id="iGifAfr__MeMplPH2VUG-8" value="" style="endArrow=block;html=1;rounded=0;entryX=0.5;entryY=0;entryDx=0;entryDy=0;exitX=0.5;exitY=1;exitDx=0;exitDy=0;endFill=0;" edge="1" parent="gg7kWlv7hK0jXm-3Od6L-1" source="iGifAfr__MeMplPH2VUG-7" target="iGifAfr__MeMplPH2VUG-0">
          <mxGeometry width="50" height="50" relative="1" as="geometry">
            <mxPoint x="320" y="110" as="sourcePoint" />
            <mxPoint x="370" y="60" as="targetPoint" />
          </mxGeometry>
        </mxCell>
        <mxCell id="iGifAfr__MeMplPH2VUG-9" value="마이페이지" style="ellipse;whiteSpace=wrap;html=1;" vertex="1" parent="gg7kWlv7hK0jXm-3Od6L-1">
          <mxGeometry x="480" y="190" width="80" height="40" as="geometry" />
        </mxCell>
        <mxCell id="iGifAfr__MeMplPH2VUG-10" style="edgeStyle=orthogonalEdgeStyle;rounded=0;orthogonalLoop=1;jettySize=auto;html=1;entryX=0.5;entryY=1;entryDx=0;entryDy=0;endArrow=block;endFill=0;" edge="1" parent="gg7kWlv7hK0jXm-3Od6L-1" source="iGifAfr__MeMplPH2VUG-11" target="iGifAfr__MeMplPH2VUG-9">
          <mxGeometry relative="1" as="geometry" />
        </mxCell>
        <mxCell id="iGifAfr__MeMplPH2VUG-11" value="등록" style="ellipse;whiteSpace=wrap;html=1;" vertex="1" parent="gg7kWlv7hK0jXm-3Od6L-1">
          <mxGeometry x="460" y="270" width="40" height="40" as="geometry" />
        </mxCell>
        <mxCell id="iGifAfr__MeMplPH2VUG-12" style="edgeStyle=orthogonalEdgeStyle;rounded=0;orthogonalLoop=1;jettySize=auto;html=1;endArrow=block;endFill=0;" edge="1" parent="gg7kWlv7hK0jXm-3Od6L-1" source="iGifAfr__MeMplPH2VUG-13">
          <mxGeometry relative="1" as="geometry">
            <mxPoint x="520" y="230" as="targetPoint" />
          </mxGeometry>
        </mxCell>
        <mxCell id="iGifAfr__MeMplPH2VUG-13" value="수정" style="ellipse;whiteSpace=wrap;html=1;" vertex="1" parent="gg7kWlv7hK0jXm-3Od6L-1">
          <mxGeometry x="500" y="270" width="40" height="40" as="geometry" />
        </mxCell>
        <mxCell id="iGifAfr__MeMplPH2VUG-14" style="edgeStyle=orthogonalEdgeStyle;rounded=0;orthogonalLoop=1;jettySize=auto;html=1;entryX=0.5;entryY=1;entryDx=0;entryDy=0;endArrow=block;endFill=0;" edge="1" parent="gg7kWlv7hK0jXm-3Od6L-1" source="iGifAfr__MeMplPH2VUG-15" target="iGifAfr__MeMplPH2VUG-9">
          <mxGeometry relative="1" as="geometry" />
        </mxCell>
        <mxCell id="iGifAfr__MeMplPH2VUG-15" value="삭제" style="ellipse;whiteSpace=wrap;html=1;" vertex="1" parent="gg7kWlv7hK0jXm-3Od6L-1">
          <mxGeometry x="540" y="270" width="40" height="40" as="geometry" />
        </mxCell>
        <mxCell id="iGifAfr__MeMplPH2VUG-16" value="조회" style="ellipse;whiteSpace=wrap;html=1;" vertex="1" parent="gg7kWlv7hK0jXm-3Od6L-1">
          <mxGeometry x="500" y="130" width="40" height="40" as="geometry" />
        </mxCell>
        <mxCell id="iGifAfr__MeMplPH2VUG-17" value="" style="endArrow=block;html=1;rounded=0;entryX=0.5;entryY=0;entryDx=0;entryDy=0;exitX=0.5;exitY=1;exitDx=0;exitDy=0;endFill=0;" edge="1" parent="gg7kWlv7hK0jXm-3Od6L-1" source="iGifAfr__MeMplPH2VUG-16" target="iGifAfr__MeMplPH2VUG-9">
          <mxGeometry width="50" height="50" relative="1" as="geometry">
            <mxPoint x="450" y="110" as="sourcePoint" />
            <mxPoint x="500" y="60" as="targetPoint" />
          </mxGeometry>
        </mxCell>
        <mxCell id="q49WcJXi1EmbXdUbP7iP-10" style="edgeStyle=orthogonalEdgeStyle;rounded=0;orthogonalLoop=1;jettySize=auto;html=1;exitX=0.5;exitY=0.5;exitDx=0;exitDy=0;exitPerimeter=0;entryX=0.5;entryY=0;entryDx=0;entryDy=0;" edge="1" parent="gg7kWlv7hK0jXm-3Od6L-1" source="q49WcJXi1EmbXdUbP7iP-36" target="iGifAfr__MeMplPH2VUG-16">
          <mxGeometry relative="1" as="geometry">
            <mxPoint x="520" y="-400" as="targetPoint" />
            <mxPoint x="60" y="105" as="sourcePoint" />
            <Array as="points">
              <mxPoint x="390" y="80" />
              <mxPoint x="390" y="80" />
              <mxPoint x="390" y="100" />
              <mxPoint x="520" y="100" />
            </Array>
          </mxGeometry>
        </mxCell>
        <mxCell id="q49WcJXi1EmbXdUbP7iP-21" value="" style="endArrow=open;dashed=1;html=1;rounded=0;exitX=0.5;exitY=0;exitDx=0;exitDy=0;entryX=0.5;entryY=1;entryDx=0;entryDy=0;endFill=0;" edge="1" parent="gg7kWlv7hK0jXm-3Od6L-1" source="gg7kWlv7hK0jXm-3Od6L-6" target="iGifAfr__MeMplPH2VUG-4">
          <mxGeometry width="50" height="50" relative="1" as="geometry">
            <mxPoint x="390" y="400" as="sourcePoint" />
            <mxPoint x="440" y="350" as="targetPoint" />
          </mxGeometry>
        </mxCell>
        <mxCell id="q49WcJXi1EmbXdUbP7iP-24" value="" style="endArrow=open;dashed=1;html=1;rounded=0;exitX=0.5;exitY=0;exitDx=0;exitDy=0;endFill=0;entryX=0.5;entryY=1;entryDx=0;entryDy=0;" edge="1" parent="gg7kWlv7hK0jXm-3Od6L-1" source="gg7kWlv7hK0jXm-3Od6L-6" target="iGifAfr__MeMplPH2VUG-2">
          <mxGeometry width="50" height="50" relative="1" as="geometry">
            <mxPoint x="370" y="440" as="sourcePoint" />
            <mxPoint x="350" y="310" as="targetPoint" />
          </mxGeometry>
        </mxCell>
        <mxCell id="q49WcJXi1EmbXdUbP7iP-25" value="" style="endArrow=open;dashed=1;html=1;rounded=0;exitX=0.5;exitY=0;exitDx=0;exitDy=0;entryX=0.5;entryY=1;entryDx=0;entryDy=0;endFill=0;" edge="1" parent="gg7kWlv7hK0jXm-3Od6L-1" source="gg7kWlv7hK0jXm-3Od6L-6" target="iGifAfr__MeMplPH2VUG-6">
          <mxGeometry width="50" height="50" relative="1" as="geometry">
            <mxPoint x="570" y="540" as="sourcePoint" />
            <mxPoint x="510" y="410" as="targetPoint" />
          </mxGeometry>
        </mxCell>
        <mxCell id="q49WcJXi1EmbXdUbP7iP-26" value="" style="endArrow=open;dashed=1;html=1;rounded=0;exitX=0.5;exitY=0;exitDx=0;exitDy=0;endFill=0;entryX=0.5;entryY=1;entryDx=0;entryDy=0;" edge="1" parent="gg7kWlv7hK0jXm-3Od6L-1" source="gg7kWlv7hK0jXm-3Od6L-6" target="gg7kWlv7hK0jXm-3Od6L-33">
          <mxGeometry width="50" height="50" relative="1" as="geometry">
            <mxPoint x="520" y="620" as="sourcePoint" />
            <mxPoint x="460" y="490" as="targetPoint" />
          </mxGeometry>
        </mxCell>
        <mxCell id="q49WcJXi1EmbXdUbP7iP-27" value="" style="endArrow=open;dashed=1;html=1;rounded=0;exitX=0.5;exitY=0;exitDx=0;exitDy=0;endFill=0;entryX=0.5;entryY=1;entryDx=0;entryDy=0;" edge="1" parent="gg7kWlv7hK0jXm-3Od6L-1" source="gg7kWlv7hK0jXm-3Od6L-6" target="gg7kWlv7hK0jXm-3Od6L-31">
          <mxGeometry width="50" height="50" relative="1" as="geometry">
            <mxPoint x="542" y="746" as="sourcePoint" />
            <mxPoint x="460" y="610" as="targetPoint" />
          </mxGeometry>
        </mxCell>
        <mxCell id="q49WcJXi1EmbXdUbP7iP-28" value="" style="endArrow=open;dashed=1;html=1;rounded=0;endFill=0;entryX=0.5;entryY=1;entryDx=0;entryDy=0;exitX=0.5;exitY=0;exitDx=0;exitDy=0;" edge="1" parent="gg7kWlv7hK0jXm-3Od6L-1" source="gg7kWlv7hK0jXm-3Od6L-6" target="gg7kWlv7hK0jXm-3Od6L-29">
          <mxGeometry width="50" height="50" relative="1" as="geometry">
            <mxPoint x="380" y="440" as="sourcePoint" />
            <mxPoint x="480" y="580" as="targetPoint" />
          </mxGeometry>
        </mxCell>
        <mxCell id="q49WcJXi1EmbXdUbP7iP-29" value="" style="endArrow=open;dashed=1;html=1;rounded=0;endFill=0;entryX=0.5;entryY=1;entryDx=0;entryDy=0;exitX=0.5;exitY=0;exitDx=0;exitDy=0;" edge="1" parent="gg7kWlv7hK0jXm-3Od6L-1" source="gg7kWlv7hK0jXm-3Od6L-6" target="iGifAfr__MeMplPH2VUG-11">
          <mxGeometry width="50" height="50" relative="1" as="geometry">
            <mxPoint x="690" y="700" as="sourcePoint" />
            <mxPoint x="530" y="570" as="targetPoint" />
          </mxGeometry>
        </mxCell>
        <mxCell id="q49WcJXi1EmbXdUbP7iP-30" value="" style="endArrow=open;dashed=1;html=1;rounded=0;endFill=0;entryX=0.5;entryY=1;entryDx=0;entryDy=0;exitX=0.5;exitY=0;exitDx=0;exitDy=0;" edge="1" parent="gg7kWlv7hK0jXm-3Od6L-1" source="gg7kWlv7hK0jXm-3Od6L-6" target="iGifAfr__MeMplPH2VUG-13">
          <mxGeometry width="50" height="50" relative="1" as="geometry">
            <mxPoint x="410" y="440" as="sourcePoint" />
            <mxPoint x="532" y="500" as="targetPoint" />
          </mxGeometry>
        </mxCell>
        <mxCell id="q49WcJXi1EmbXdUbP7iP-31" value="" style="endArrow=open;dashed=1;html=1;rounded=0;endFill=0;entryX=0.5;entryY=1;entryDx=0;entryDy=0;exitX=0.5;exitY=0;exitDx=0;exitDy=0;" edge="1" parent="gg7kWlv7hK0jXm-3Od6L-1" source="gg7kWlv7hK0jXm-3Od6L-6" target="iGifAfr__MeMplPH2VUG-15">
          <mxGeometry width="50" height="50" relative="1" as="geometry">
            <mxPoint x="510" y="610" as="sourcePoint" />
            <mxPoint x="590" y="480" as="targetPoint" />
          </mxGeometry>
        </mxCell>
        <mxCell id="q49WcJXi1EmbXdUbP7iP-34" value="" style="endArrow=open;dashed=1;html=1;rounded=0;exitX=0.5;exitY=0;exitDx=0;exitDy=0;endFill=0;entryX=0.5;entryY=1;entryDx=0;entryDy=0;" edge="1" parent="gg7kWlv7hK0jXm-3Od6L-1" source="gg7kWlv7hK0jXm-3Od6L-6" target="q49WcJXi1EmbXdUbP7iP-32">
          <mxGeometry width="50" height="50" relative="1" as="geometry">
            <mxPoint x="390" y="410" as="sourcePoint" />
            <mxPoint x="350" y="310" as="targetPoint" />
          </mxGeometry>
        </mxCell>
        <mxCell id="q49WcJXi1EmbXdUbP7iP-35" value="" style="endArrow=open;dashed=1;html=1;rounded=0;endFill=0;entryX=0.5;entryY=1;entryDx=0;entryDy=0;exitX=0.5;exitY=0;exitDx=0;exitDy=0;" edge="1" parent="gg7kWlv7hK0jXm-3Od6L-1" source="gg7kWlv7hK0jXm-3Od6L-6" target="q49WcJXi1EmbXdUbP7iP-32">
          <mxGeometry width="50" height="50" relative="1" as="geometry">
            <mxPoint x="390" y="410" as="sourcePoint" />
            <mxPoint x="480" y="310" as="targetPoint" />
          </mxGeometry>
        </mxCell>
        <mxCell id="q49WcJXi1EmbXdUbP7iP-32" value="include" style="text;html=1;align=center;verticalAlign=middle;resizable=0;points=[];autosize=1;strokeColor=none;fillColor=none;fontSize=30;" vertex="1" parent="gg7kWlv7hK0jXm-3Od6L-1">
          <mxGeometry x="330" y="360" width="120" height="50" as="geometry" />
        </mxCell>
        <mxCell id="q49WcJXi1EmbXdUbP7iP-36" value="&lt;font style=&quot;font-size: 24px;&quot;&gt;use&lt;/font&gt;" style="text;html=1;align=center;verticalAlign=middle;resizable=0;points=[];autosize=1;strokeColor=none;fillColor=none;" vertex="1" parent="gg7kWlv7hK0jXm-3Od6L-1">
          <mxGeometry x="360" y="80" width="60" height="40" as="geometry" />
        </mxCell>
        <mxCell id="q49WcJXi1EmbXdUbP7iP-38" value="&lt;font style=&quot;font-size: 24px;&quot;&gt;use&lt;/font&gt;" style="text;html=1;align=center;verticalAlign=middle;resizable=0;points=[];autosize=1;strokeColor=none;fillColor=none;" vertex="1" parent="gg7kWlv7hK0jXm-3Od6L-1">
          <mxGeometry x="290" y="130" width="60" height="40" as="geometry" />
        </mxCell>
        <mxCell id="q49WcJXi1EmbXdUbP7iP-43" value="" style="endArrow=classic;html=1;rounded=0;entryX=0.5;entryY=0;entryDx=0;entryDy=0;" edge="1" parent="gg7kWlv7hK0jXm-3Od6L-1" target="iGifAfr__MeMplPH2VUG-16">
          <mxGeometry width="50" height="50" relative="1" as="geometry">
            <mxPoint x="61" y="110" as="sourcePoint" />
            <mxPoint x="250" y="420" as="targetPoint" />
            <Array as="points">
              <mxPoint x="100" y="110" />
              <mxPoint x="100" y="70" />
              <mxPoint x="390" y="70" />
              <mxPoint x="390" y="100" />
              <mxPoint x="520" y="100" />
            </Array>
          </mxGeometry>
        </mxCell>
        <mxCell id="q49WcJXi1EmbXdUbP7iP-44" value="" style="endArrow=classic;html=1;rounded=0;entryX=0;entryY=0.5;entryDx=0;entryDy=0;exitX=1;exitY=0.3333333333333333;exitDx=0;exitDy=0;exitPerimeter=0;" edge="1" parent="gg7kWlv7hK0jXm-3Od6L-1" source="gg7kWlv7hK0jXm-3Od6L-4" target="iGifAfr__MeMplPH2VUG-7">
          <mxGeometry width="50" height="50" relative="1" as="geometry">
            <mxPoint x="80" y="600" as="sourcePoint" />
            <mxPoint x="345" y="560" as="targetPoint" />
            <Array as="points">
              <mxPoint x="140" y="592" />
              <mxPoint x="140" y="120" />
              <mxPoint x="320" y="120" />
              <mxPoint x="320" y="150" />
            </Array>
          </mxGeometry>
        </mxCell>
      </root>
    </mxGraphModel>
  </diagram>
</mxfile>
